PathFileType	4	(X/Y/Z)	C:/Users/opensim2020/Desktop/walking_exp_matlab/subject06_walking13_straight_04.trc	
DataRate	CameraRate	NumFrames	NumMarkers	Units	OrigDataRate	OrigDataStartFrame	OrigNumFrames	
100.00	100.00	7	50	mm	100.00	2962	204	
Frame#	Time	LFHD			RFHD			LBHD			RBHD			C7			T10			CLAV			STRN			RBAK			LSHO			LUPA			LELB			LFRM			LWRA			LWRB			LFIN			RSHO			RUPA			RELB			RFRM			RWRA			RWRB			RFIN			LASI			RASI			LPSI			RPSI			LTHI			LKNE			LTIB			LANK			LHEE			LTOE			RTHI			RKNE			RTIB			RANK			RHEE			RTOE			*39			*40			*41			*42			*43			*44			*45			*46			*47			*48			*49			
		X1	Y1	Z1	X2	Y2	Z2	X3	Y3	Z3	X4	Y4	Z4	X5	Y5	Z5	X6	Y6	Z6	X7	Y7	Z7	X8	Y8	Z8	X9	Y9	Z9	X10	Y10	Z10	X11	Y11	Z11	X12	Y12	Z12	X13	Y13	Z13	X14	Y14	Z14	X15	Y15	Z15	X16	Y16	Z16	X17	Y17	Z17	X18	Y18	Z18	X19	Y19	Z19	X20	Y20	Z20	X21	Y21	Z21	X22	Y22	Z22	X23	Y23	Z23	X24	Y24	Z24	X25	Y25	Z25	X26	Y26	Z26	X27	Y27	Z27	X28	Y28	Z28	X29	Y29	Z29	X30	Y30	Z30	X31	Y31	Z31	X32	Y32	Z32	X33	Y33	Z33	X34	Y34	Z34	X35	Y35	Z35	X36	Y36	Z36	X37	Y37	Z37	X38	Y38	Z38	X39	Y39	Z39	X40	Y40	Z40	X41	Y41	Z41	X42	Y42	Z42	X43	Y43	Z43	X44	Y44	Z44	X45	Y45	Z45	X46	Y46	Z46	X47	Y47	Z47	X48	Y48	Z48	X49	Y49	Z49	X50	Y50	Z50	

103	1.020	1510.56982	233.57928	1670.21350	1379.31311	243.30287	1656.43298	1520.98218	366.45361	1614.66785	1392.30115	374.70850	1607.16113	1465.22961	369.58893	1452.86707	1456.42700	392.10257	1122.02588	1457.74109	256.97876	1379.39697	1461.30115	211.35094	1206.18835	1388.13062	441.39728	1280.27490	1623.00464	307.43503	1407.93164	1693.52942	310.10471	1204.23096	1704.94128	317.42746	1092.54285	1726.24756	293.25259	944.43109	1679.56299	237.98117	828.32288	1721.79761	296.21878	824.22205	1720.88098	255.74026	743.22198	1299.43872	313.49023	1410.17163	1215.45996	344.37933	1208.58850	1204.70984	326.91898	1087.23730	1187.41565	302.65933	969.07898	1218.30237	230.03970	835.68604	1178.26917	284.29340	832.75482	1176.10815	241.11751	760.28992	1562.01245	199.68150	975.83765	1341.42834	213.52849	974.78052	1539.94312	360.41376	991.76599	1372.01001	362.84155	985.38605	1618.50671	241.50096	657.48035	1591.57813	233.45097	493.78613	1580.53149	283.49490	240.02283	1532.78943	300.51013	69.04609	1492.31079	346.57040	55.92365	1510.53088	158.09930	41.90757	1292.25684	190.01503	639.42841	1312.17920	145.37263	521.47052	1321.71887	308.78372	328.16425	1365.69312	437.41257	195.77293	1415.32788	480.52094	197.91144	1350.54114	346.29688	71.17322	1457.59314	338.25433	1706.85828																														 
104	1.030	1510.49561	222.97868	1670.76172	1379.25720	232.83223	1656.75793	1521.21411	355.81201	1615.29028	1392.52258	364.26874	1607.54395	1465.74255	359.01013	1453.37183	1457.00549	381.44809	1122.56775	1458.07397	246.37178	1379.92786	1461.87549	200.69804	1206.75562	1388.78381	430.79462	1280.81189	1623.37598	296.81778	1408.53992	1694.53040	296.22400	1205.02637	1706.31592	301.14008	1093.22180	1727.89063	272.79855	945.82715	1681.54297	213.73563	831.54041	1723.34216	272.19513	825.58734	1722.96838	228.84845	746.11981	1299.80432	302.93320	1410.60620	1216.42810	335.59570	1208.98120	1205.88257	319.77277	1087.48560	1188.53918	298.48105	968.74792	1219.00183	229.68013	833.07733	1178.94580	284.29211	831.89496	1176.78552	243.35841	757.98108	1562.82727	189.75462	975.74390	1342.16321	202.52600	975.71069	1540.06421	350.30328	992.19183	1372.06860	352.05573	986.59668	1618.34644	235.09402	657.20825	1591.59167	229.16263	493.24854	1580.22998	281.64883	240.14507	1532.41223	300.16003	69.28229	1491.73535	345.99457	56.40879	1510.51660	157.55225	41.51930	1292.93896	174.36760	642.07312	1314.12854	128.40218	524.78040	1322.53906	285.56332	325.30426	1365.40979	408.88431	187.37979	1414.56848	452.36661	186.96957	1349.68176	310.63919	68.64320	1457.60803	327.65771	1707.36755																														 
105	1.040	1510.34558	212.33463	1671.16931	1379.16064	222.42021	1656.93408	1521.39331	344.98349	1615.79980	1392.83411	354.29993	1607.73145	1466.19092	348.32260	1453.71582	1457.54480	370.80096	1122.93616	1458.40918	235.76270	1380.24280	1462.50110	190.07205	1207.11890	1389.51416	420.15649	1281.17053	1623.69092	286.20782	1409.04431	1695.47485	282.54022	1205.78333	1707.82153	284.97513	1093.85278	1729.51331	252.34348	947.39294	1683.34851	189.55222	835.07513	1724.75232	248.00035	827.18506	1724.86853	201.94250	749.46875	1300.14490	292.30026	1410.85999	1217.15295	327.12421	1209.32178	1206.87939	312.67664	1087.67029	1189.52942	294.29703	968.42725	1219.77869	228.78264	830.88434	1179.76770	283.98587	831.32111	1177.35840	245.49614	755.97375	1563.60303	179.97386	975.48450	1343.00122	191.48184	976.40363	1540.22327	340.22726	992.51672	1371.98718	341.14978	987.48669	1618.46301	228.28217	656.78619	1591.47961	224.49043	492.79453	1579.48413	279.35272	240.19174	1532.03772	299.81744	69.47879	1491.43286	345.74814	56.79718	1510.51440	157.00385	41.40507	1293.63831	159.23724	644.36011	1315.97827	111.85456	527.97406	1322.63318	262.82928	322.13852	1364.97400	379.67395	178.50574	1413.98389	423.07462	175.25858	1348.09033	275.57816	66.14485	1457.61096	317.07510	1707.72925																														 
106	1.050	1510.19556	201.59554	1671.47900	1379.04163	212.02216	1656.98547	1521.61438	334.25229	1616.06396	1393.14343	344.10294	1607.69434	1466.59216	337.56284	1453.91174	1458.05627	360.23593	1123.14685	1458.71631	225.05650	1380.49365	1463.01721	179.37433	1207.34802	1390.20032	409.42429	1281.40356	1623.93835	275.59802	1409.29211	1696.40259	268.95752	1206.43652	1709.36536	268.87869	1094.44373	1731.10254	231.82764	949.01184	1684.97729	165.39763	839.01453	1725.58484	223.55632	828.62671	1726.42285	174.93629	753.06787	1300.45129	281.61523	1410.95764	1217.81580	318.79965	1209.54272	1207.81946	305.64453	1087.75061	1190.48950	290.15408	968.10608	1220.16602	228.75293	828.52759	1180.48608	283.43076	830.77332	1177.98181	247.43320	754.19812	1564.42529	170.35625	975.02582	1343.93738	180.30273	976.94434	1540.23926	330.42703	992.62659	1371.91614	330.25293	988.23718	1618.24329	221.70078	656.30457	1591.25269	219.50179	492.19385	1578.98718	276.65720	240.19437	1531.73535	299.35043	69.66116	1490.85779	344.86057	56.90768	1510.64160	156.78917	41.18553	1294.44312	144.65750	646.60315	1317.56165	96.10472	530.77917	1322.84241	239.87042	318.61014	1364.72559	349.82935	169.26427	1413.68298	393.09024	163.36720	1346.82458	239.76222	63.49454	1457.61316	306.52817	1707.90808																														 
107	1.060	1510.01050	190.93600	1671.59766	1378.91113	201.55910	1656.91089	1521.96716	323.69446	1616.12683	1393.34583	333.59619	1607.52844	1466.90417	326.90552	1453.97815	1458.53931	349.72363	1123.24072	1459.00488	214.39645	1380.48828	1463.53821	168.69264	1207.40295	1390.91882	398.64139	1281.47131	1624.22620	264.81992	1409.46558	1697.36072	255.47276	1206.99500	1710.90222	252.92686	1094.98938	1732.53345	211.44872	950.68286	1686.43542	141.80559	842.92255	1727.07800	199.37720	830.92236	1727.76025	147.94240	757.07819	1300.70068	270.88953	1410.86670	1218.69482	310.15701	1209.60583	1208.51526	299.02731	1087.67236	1191.31189	285.86023	967.75031	1220.59619	228.08743	826.52899	1181.17896	282.81552	830.30457	1178.46887	249.09912	752.57599	1565.16125	160.99377	974.42987	1344.95227	169.10211	977.29285	1540.16418	320.68808	992.57404	1371.74707	319.34924	988.80920	1617.78528	214.65405	655.74884	1591.01672	214.28159	491.45026	1578.39441	274.00824	240.11513	1531.31799	298.89908	69.85343	1490.54468	344.73303	57.69102	1510.57373	156.34436	41.31754	1295.06677	130.42839	648.55731	1318.93994	81.10777	533.33881	1323.00989	217.02071	314.68170	1364.21875	319.26508	159.71365	1413.52087	362.26648	151.14487	1345.45251	203.16989	61.22430	1457.63074	296.01822	1707.88611																														 
108	1.070	1509.80847	180.36824	1671.55994	1378.79028	191.21616	1656.63928	1522.15759	312.97214	1615.99146	1393.58948	323.04288	1607.22192	1467.19556	316.07861	1453.83313	1458.94690	339.23370	1123.17310	1459.29590	203.60410	1380.35999	1464.07959	158.12662	1207.19983	1391.63171	387.93140	1281.35962	1624.42102	254.01440	1409.40198	1698.31226	242.16313	1207.45691	1712.59814	237.17354	1095.54395	1734.03015	191.04276	952.53046	1687.51428	118.07074	847.38678	1728.19275	175.03468	833.33704	1728.85425	121.03059	761.47693	1300.92639	260.11508	1410.59753	1219.37183	301.62976	1209.57373	1209.32788	292.05551	1087.56445	1192.05945	281.60190	967.46228	1220.84570	226.79366	824.77594	1181.75659	281.92096	829.95020	1179.05737	250.39870	751.27533	1566.16003	151.52252	973.76300	1346.06055	157.97246	977.47528	1540.00854	311.10382	992.30560	1371.49622	308.38870	989.07117	1617.47998	207.70937	655.02045	1590.76050	208.99939	490.71805	1577.95691	271.61728	240.10400	1530.88159	298.64423	70.08286	1490.11304	344.38272	58.17414	1510.39355	155.99051	40.99979	1295.55396	116.73155	650.22650	1320.01025	67.07983	535.44086	1323.18774	194.31702	310.64316	1364.01135	288.41766	150.38330	1413.09497	330.46255	138.80321	1344.37415	167.22731	58.77217	1457.67334	285.51694	1707.67798																														 
109	1.080	1509.61279	169.73174	1671.37268	1378.64441	180.77243	1656.28357	1522.33594	302.23828	1615.64343	1393.65454	312.53320	1606.69446	1467.41272	305.24591	1453.60876	1459.27161	328.82996	1123.04138	1459.51855	192.83606	1380.07080	1464.58435	147.54871	1206.84363	1392.18542	377.20462	1281.07959	1624.57520	243.11778	1409.26538	1699.27771	228.88036	1207.86877	1714.37085	221.52020	1096.05420	1735.06250	170.88300	954.23041	1688.34497	94.61195	852.15881	1729.20972	150.82649	835.92224	1729.59546	94.20680	766.22711	1301.08618	249.28012	1410.20972	1219.84314	293.02402	1209.47363	1210.02686	285.10788	1087.37976	1192.70532	277.20703	967.11261	1221.13940	225.78203	823.05688	1182.28638	280.74350	829.58276	1179.42224	251.10080	750.07910	1567.19006	142.17418	972.90710	1347.08533	146.81140	977.52765	1539.78027	301.47696	991.87152	1371.30261	297.75015	989.29895	1617.15698	200.67772	654.27997	1590.46362	203.66971	489.92786	1577.59265	269.26117	240.07693	1530.55139	298.28152	70.36676	1489.66724	344.02188	58.67589	1510.21582	155.52335	40.80140	1295.80640	103.16051	651.91425	1320.97095	53.27449	537.26013	1323.13831	171.67892	306.50497	1363.55884	256.67349	140.83662	1412.93640	298.04285	126.75686	1343.07129	130.31905	56.92233	1457.63635	275.08524	1707.27039																														 
